# Blender 5.0.1
# www.blender.org
mtllib 無題.mtl
o Cube
v 1.000000 1.000000 -1.000000
v 1.000000 -1.000000 -1.000000
v 1.000000 1.000000 1.000000
v 1.000000 -1.000000 1.000000
v -1.000000 1.000000 -1.000000
v -1.000000 -1.000000 -1.000000
v -1.000000 1.000000 1.000000
v -1.000000 -1.000000 1.000000
v -3.756752 -3.756752 3.756752
v -0.973536 -0.973536 0.973536
v 0.294089 -0.795787 -4.445692
v 0.294089 -0.795787 -2.445692
v -1.705911 -0.795787 -4.445692
v -1.705911 -0.795787 -2.445692
v -4.462663 -3.552538 0.311059
v -1.679448 -0.769323 -2.472156
v -3.488940 -3.205934 -1.167883
v -5.488940 -3.205934 -1.167883
v -4.194851 -3.001720 -4.613575
v -6.194851 -3.001720 -4.613575
v -0.926999 -2.440918 -0.045990
v -2.926999 -2.440918 -0.045990
v -5.683751 -5.197669 2.710761
v -6.389662 -4.993456 -0.734931
vn -0.0000 1.0000 -0.0000
vn -0.0000 -0.0000 1.0000
vn -1.0000 -0.0000 -0.0000
vn 0.6064 -0.7767 -0.1703
vn 1.0000 -0.0000 -0.0000
vn -0.0000 -0.0000 -1.0000
vn -0.0000 -1.0000 -0.0000
vn -0.0000 0.0759 -0.9971
vn -0.0000 -0.9982 -0.0592
vn -0.6064 0.7767 0.1703
vn 0.2779 0.9606 -0.0000
vn -0.2779 -0.9606 -0.0000
vn -0.0000 0.9982 0.0592
vn 0.4408 -0.8862 -0.1428
vn -0.0000 -0.0759 0.9971
vn -0.4408 0.8862 0.1428
vn -0.6492 0.7398 0.1768
vn -0.6366 0.7611 0.1244
vn -0.0000 0.5875 -0.8093
vt 0.625000 0.500000
vt 0.875000 0.500000
vt 0.875000 0.750000
vt 0.625000 0.750000
vt 0.375000 0.750000
vt 0.625000 1.000000
vt 0.375000 1.000000
vt 0.375000 0.000000
vt 0.625000 0.000000
vt 0.625000 0.250000
vt 0.375000 0.250000
vt 0.000000 0.000000
vt 0.375000 0.500000
vt 0.125000 0.500000
vt 0.125000 0.750000
s 0
usemtl Material
f 1/1/1 5/2/1 7/3/1 3/4/1
f 4/5/2 3/4/2 7/6/2 8/7/2
f 8/8/3 7/9/3 5/10/3 6/11/3
f 8/12/4 9/12/4 15/12/4 14/12/4
f 2/13/5 1/1/5 3/4/5 4/5/5
f 6/11/6 5/10/6 1/1/6 2/13/6
f 13/14/7 11/13/7 12/5/7 14/15/7
f 6/11/8 2/13/8 17/13/8 18/11/8
f 4/5/9 8/7/9 14/7/9 12/5/9
f 9/12/10 10/12/10 16/12/10 15/12/10
f 8/8/11 6/11/11 13/11/11 14/8/11
f 2/13/12 4/5/12 12/5/12 11/13/12
f 18/11/13 17/13/13 19/13/13 20/11/13
f 13/11/14 6/11/14 18/11/14 20/11/14
f 11/13/15 13/14/15 20/14/15 19/13/15
f 2/13/16 11/13/16 19/13/16 17/13/16
f 9/12/17 15/12/17 24/12/17 23/12/17
f 9/12/18 8/12/18 22/12/18 23/12/18
f 8/7/19 4/5/19 21/5/19 22/7/19
